HIERARCHY
ROOT Pelvis
{
	OFFSET 0.000000 0.000000 0.000000
	CHANNELS 6 Xposition Yposition Zposition Zrotation Yrotation Xrotation 
	JOINT Left_hip
	{
		OFFSET 0.070241 -0.085575 -0.010474
		CHANNELS 3 Zrotation Yrotation Xrotation
		JOINT Left_knee
		{
			OFFSET 0.032125 -0.356873 -0.000555
			CHANNELS 3 Zrotation Yrotation Xrotation
			JOINT Left_ankle
			{
				OFFSET -0.010961 -0.370212 -0.042278
				CHANNELS 3 Zrotation Yrotation Xrotation
				JOINT Left_foot
				{
					OFFSET 0.023322 -0.052281 0.110104
					CHANNELS 3 Zrotation Yrotation Xrotation
					End Site
					{
						OFFSET 0.000000 0.000000 0.000000
					}
				}
			}
		}
	}
	JOINT Right_hip
	{
		OFFSET -0.068518 -0.084320 -0.007402
		CHANNELS 3 Zrotation Yrotation Xrotation
		JOINT Right_knee
		{
			OFFSET -0.037345 -0.364815 -0.003619
			CHANNELS 3 Zrotation Yrotation Xrotation
			JOINT Right_ankle
			{
				OFFSET 0.013394 -0.370006 -0.039954
				CHANNELS 3 Zrotation Yrotation Xrotation
				JOINT Right_foot
				{
					OFFSET -0.019600 -0.045455 0.113223
					CHANNELS 3 Zrotation Yrotation Xrotation
					End Site
					{
						OFFSET 0.000000 0.000000 0.000000
					}
				}
			}
		}
	}
	JOINT Spine1
	{
		OFFSET -0.002404 0.098129 -0.018169
		CHANNELS 3 Zrotation Yrotation Xrotation
		JOINT Spine2
		{
			OFFSET 0.003989 0.127209 -0.001742
			CHANNELS 3 Zrotation Yrotation Xrotation
			JOINT Spine3
			{
				OFFSET 0.001758 0.046641 0.023475
				CHANNELS 3 Zrotation Yrotation Xrotation
				JOINT Neck
				{
					OFFSET -0.003759 0.194901 -0.039982
					CHANNELS 3 Zrotation Yrotation Xrotation
					JOINT Head
					{
						OFFSET 0.003999 0.063756 0.047665
						CHANNELS 3 Zrotation Yrotation Xrotation
						End Site
						{
							OFFSET 0.000000 0.000000 0.000000
						}
					}
				}
				JOINT Left_collar
				{
					OFFSET 0.071816 0.109048 -0.028973
					CHANNELS 3 Zrotation Yrotation Xrotation
					JOINT Left_shoulder
					{
						OFFSET 0.084027 0.032269 -0.006525
						CHANNELS 3 Zrotation Yrotation Xrotation
						JOINT Left_elbow
						{
							OFFSET 0.243854 -0.013992 -0.025905
							CHANNELS 3 Zrotation Yrotation Xrotation
							JOINT Left_wrist
							{
								OFFSET 0.232156 0.008196 -0.000339
								CHANNELS 3 Zrotation Yrotation Xrotation
								JOINT Left_palm
								{
									OFFSET 0.075377 -0.009461 -0.012494
									CHANNELS 3 Zrotation Yrotation Xrotation
									End Site
									{
										OFFSET 0.000000 0.000000 0.000000
									}
								}
							}
						}
					}
				}
				JOINT Right_collar
				{
					OFFSET -0.073768 0.107001 -0.033755
					CHANNELS 3 Zrotation Yrotation Xrotation
					JOINT Right_shoulder
					{
						OFFSET -0.086837 0.032868 -0.009431
						CHANNELS 3 Zrotation Yrotation Xrotation
						JOINT Right_elbow
						{
							OFFSET -0.236446 -0.012544 -0.018747
							CHANNELS 3 Zrotation Yrotation Xrotation
							JOINT Right_wrist
							{
								OFFSET -0.236110 0.006124 -0.004327
								CHANNELS 3 Zrotation Yrotation Xrotation
								JOINT Right_palm
								{
									OFFSET -0.074800 -0.006875 -0.009610
									CHANNELS 3 Zrotation Yrotation Xrotation
									End Site
									{
										OFFSET 0.000000 0.000000 0.000000
									}
								}
							}
						}
					}
				}
			}
		}
	}
}
MOTION
Frames: 13
Frame Time: 0.100000
0.000000 0.000000 0.000000 177.926659 20.807603 -7.470741 -0.790429 5.420781 -1.009417 0.397863 -4.667955 -4.465322 -4.527379 24.200944 -3.199697 10.415031 -5.090981 1.401849 1.266345 -5.132335 -0.310011 -1.060331 4.807215 -3.035644 -2.483984 -22.556299 -2.301470 7.826797 7.292698 8.723083 0.227623 1.843872 -1.952491 -0.187012 -2.760106 -4.794637 -2.142181 1.898588 -1.257670 -5.070468 -13.088960 13.443657 1.952821 -6.381616 9.241902 -8.360330 9.418151 -10.157926 3.253588 -15.427841 -12.133161 3.489087 5.720814 -9.943861 0.976975 -5.869787 30.560035 -0.571765 -7.017358 0.328420 9.397138 -3.389043 -8.144039 -7.035414 11.608493 -17.912598 -7.316454 -9.418207 -6.365454 -4.510169 4.577670 35.151780 5.437243 8.158934 -2.131342 
0.002254 0.001175 -0.004301 177.882796 20.813150 -7.657403 -0.760528 5.434858 -1.253587 0.450546 -4.555948 -4.299962 -4.522190 24.104816 -2.905288 10.631002 -4.942813 0.668976 1.292822 -5.130718 -0.524863 -0.952052 4.617983 -2.933539 -2.702664 -22.317462 -2.088359 8.089713 7.520529 8.774316 0.299137 2.272274 -1.803479 -0.185073 -2.577716 -3.914106 -1.872995 2.255254 -1.594694 -4.490982 -8.550313 12.156026 1.878894 -2.600267 9.984208 -9.395019 7.340212 -10.054445 3.037590 -16.588223 -12.091353 4.347222 1.897055 -11.799769 3.212873 -6.562750 27.757681 -2.275043 -7.392343 -0.129113 10.412119 -1.922348 -7.090340 -5.733428 11.987350 -17.556409 -7.409328 -7.869954 -8.787863 -5.988430 4.767032 32.379830 6.860086 8.735407 -2.350859 
0.004473 0.002394 -0.008323 177.764558 21.027840 -8.086884 -0.624489 5.491179 -1.081697 0.503873 -4.454482 -4.529634 -4.758222 23.761689 -2.482040 11.209816 -4.741216 -0.222928 1.342155 -5.092529 -0.380173 -0.879568 4.205896 -3.009599 -2.518214 -22.117053 -1.969895 7.564705 7.971321 8.621684 0.127279 2.618926 -1.814979 0.011948 -2.601637 -2.539769 -1.575399 2.465539 -2.130836 -4.402354 -6.557417 10.660954 2.219998 -1.189088 9.925410 -10.158448 4.720555 -9.141783 2.386086 -17.907363 -11.044483 5.033911 -5.000220 -11.201253 4.572109 -7.785041 24.819498 -4.316594 -7.838384 -1.204596 11.475528 0.620880 -5.919845 -3.944944 12.829232 -16.510834 -7.589301 -3.076000 -10.599256 -6.878395 5.613720 28.118617 8.254750 9.028431 -2.356215 
0.006663 0.003507 -0.012706 177.605088 21.636582 -8.856646 -0.449370 5.397200 -0.828489 0.440262 -4.167836 -4.309325 -4.827081 22.912133 -2.026861 11.557764 -3.941658 -1.289520 1.366993 -5.070245 0.046437 -0.872310 3.420258 -2.892317 -2.287611 -21.787157 -1.928529 6.935857 8.154728 8.402140 -0.261858 2.886698 -1.704895 0.342161 -2.743555 -1.098125 -1.362158 2.546829 -2.545407 -4.147427 -6.001134 9.447539 2.489366 -1.395003 9.948807 -10.625066 2.102337 -8.215260 0.369729 -20.260454 -8.876004 6.386669 -15.034630 -9.130259 7.538503 -9.550088 21.219370 -6.423699 -8.103868 -2.027642 12.602897 3.249028 -4.990720 -0.520370 14.332163 -13.724404 -8.748702 5.353823 -10.307442 -9.785538 7.188998 23.482990 9.674923 9.192567 -2.098008 
0.008894 0.004629 -0.017176 177.446550 22.565325 -9.681463 -0.285209 5.026806 -0.507907 0.369811 -2.917900 -4.065977 -4.061827 20.427759 -1.114352 10.166318 -1.369188 -2.533673 1.307925 -4.887157 0.451405 -0.861966 1.476452 -2.469121 -2.060446 -20.324219 -2.269766 6.533518 7.181184 8.785236 -0.608894 3.091514 -1.677548 0.597208 -2.681804 0.474579 -1.341120 2.481271 -2.763227 -3.192114 -5.245493 9.009408 1.921224 -2.866603 9.752690 -11.000087 0.085333 -7.544982 -8.690850 -23.283375 -3.190580 10.672994 -27.795868 -9.458164 12.510032 -11.674902 13.266311 -8.850037 -7.663685 -2.521454 13.502978 4.920162 -3.922439 9.360268 15.154726 -6.747375 -12.476788 19.251015 -9.463741 -15.368165 9.255195 15.468742 11.574434 8.993749 -1.595771 
0.011242 0.005280 -0.021159 176.934759 23.189783 -9.880813 0.265793 5.741179 -0.587655 0.935539 -2.892146 -4.472707 -2.431412 14.278532 1.521643 3.132250 3.785642 -7.524325 1.536628 -5.743548 -0.099723 -1.202596 1.082504 -1.455683 4.022214 -16.462068 -4.062695 -0.094825 6.630257 9.351133 -0.701405 3.170518 -2.184859 0.920550 -2.764904 2.650579 -1.084563 2.709859 -4.029001 -4.073901 -5.191768 8.174747 2.314887 -3.816214 10.827412 -11.175084 -2.568737 -6.797343 -29.284245 -20.219938 8.146717 16.170976 -40.238427 -6.811126 20.075642 -7.434131 8.360493 -15.076371 -12.373349 -9.899588 15.029559 6.659122 -0.392556 26.153884 13.003451 1.276739 -17.054639 34.617871 -6.763050 -22.236661 8.879095 10.648845 18.123410 12.716495 -7.450524 
0.013308 0.006612 -0.025016 176.797278 23.922616 -9.325015 0.397528 4.937189 -1.866379 0.731496 -1.219763 -3.794272 -1.290089 11.879458 2.354013 1.198243 6.118166 -9.104265 1.647576 -5.230445 -1.262674 -1.277780 -1.151469 -0.685199 4.757130 -14.712895 -4.360531 -1.884024 5.434666 9.547015 -0.928493 3.167620 -0.934148 1.144836 -2.597146 2.773139 -1.269038 2.637084 -4.159380 -3.745918 -5.172806 6.750380 1.823425 -4.026572 10.719414 -14.988727 -2.721978 -4.191998 -46.446166 -14.704240 18.289890 8.886707 -41.013990 6.353336 13.778620 -7.498647 7.705414 -15.308960 -11.773636 -9.957019 19.650002 6.834646 1.786735 41.857759 10.177116 11.063065 -12.186395 38.558214 6.546333 -18.350349 10.253295 15.708571 18.758120 12.721706 -7.656481 
0.016764 0.008165 -0.029752 176.936209 23.867853 -8.725722 0.381997 4.893124 -3.124867 0.503564 -1.059051 -2.821841 -0.683042 11.689927 2.504294 0.803835 6.279227 -9.446442 1.658648 -4.962022 -2.672274 -1.333053 -1.592975 0.552865 4.683064 -14.078114 -4.360048 -2.396429 4.857244 8.844048 -0.925369 3.202029 1.410699 0.867219 -2.102296 4.712324 -1.546484 2.559834 -4.611591 -3.126106 -4.997043 4.958532 1.346061 -4.022883 9.671200 -19.402720 -2.620941 -1.488883 -53.468632 -7.437004 23.145477 1.195512 -34.668463 20.692777 10.686573 -7.548463 15.540875 -15.031221 -12.153293 -12.036511 24.236177 7.610484 4.568594 50.376068 6.452813 16.756504 -4.388546 32.543937 17.470316 -14.190385 9.833020 18.233017 18.461917 12.719451 -7.965564 
0.023804 0.010279 -0.045347 176.606250 23.818602 -7.125050 0.516452 4.410658 -7.010386 0.389303 -0.876402 -0.895229 -0.394603 11.892814 3.172256 0.201451 6.263472 -10.047870 2.204966 -4.412578 -7.027491 -1.461736 -1.967491 3.576004 5.892543 -14.723615 -4.671908 -5.730447 5.869311 8.140403 -0.433899 3.045882 6.906220 0.215502 -1.461061 2.776825 -1.075666 2.607463 -1.923613 -3.636764 -5.777263 3.095470 2.536874 -4.159149 5.168368 -20.094428 -0.140327 -1.112677 -61.076971 -1.672852 21.287123 6.342461 -28.389250 11.569488 11.829126 -4.012000 10.848108 -15.892302 -12.017975 -11.712621 24.053947 6.570520 5.330344 56.674518 2.812863 17.081287 -4.700956 28.531121 16.101923 -15.116036 7.609304 14.272851 18.683738 12.272231 -7.641678 
0.032323 0.014145 -0.065499 176.548157 24.071604 -3.973518 0.296574 3.687923 -12.209778 0.155866 -1.065844 -0.407840 -0.059667 12.245717 4.513393 -0.612678 6.117026 -10.137149 2.392109 -3.403638 -14.039488 -1.702112 -2.218335 7.824468 7.517748 -16.362287 -5.108771 -10.155406 7.383997 7.090090 0.067188 2.489024 13.477286 -0.827113 -1.451183 -0.723472 -0.407027 2.428164 1.051456 -5.349242 -6.802309 0.811176 4.989091 -3.715500 0.058728 -18.801954 -0.497471 -0.871679 -65.476629 1.275724 18.255595 9.683585 -19.548062 -1.696310 12.729343 0.953628 0.961899 -17.011723 -11.767950 -10.976230 21.335560 7.058157 5.473219 61.085216 -0.565428 15.541709 -5.770166 26.423223 9.585044 -16.987368 4.140190 5.030499 19.421628 11.584510 -7.496250 
0.039117 0.018257 -0.082679 176.565464 24.149356 -1.124722 0.074449 3.238482 -16.117544 0.049743 -1.010427 -1.156189 -0.298532 12.558910 5.872657 -0.496876 6.076455 -10.126205 2.332147 -2.413678 -19.036678 -1.968596 -1.997643 9.270746 9.694541 -17.254880 -4.926400 -15.443420 7.452500 4.965488 0.582898 1.787879 18.917269 -1.729804 -2.101575 -2.554049 0.167734 2.169642 2.392452 -6.655252 -6.698315 -0.600611 7.159013 -3.380816 -3.827843 -16.927366 -4.601530 -0.104966 -66.967818 0.722973 16.876190 9.486200 -8.399283 1.642527 8.357052 1.852884 6.466836 -15.840735 -11.694495 -11.846668 18.242919 10.028650 5.799922 64.249498 -1.128643 13.715520 -7.900491 22.116586 7.702056 -11.248129 2.329859 2.882556 18.388837 10.966401 -8.003676 
0.043206 0.021878 -0.097815 176.514129 24.234873 0.958414 0.103894 2.819871 -21.687802 -0.330374 -0.182750 2.795180 -0.824020 12.795031 6.374187 -0.125233 5.690998 -11.956341 2.202407 -1.786527 -23.185077 -1.941685 -1.268722 11.033290 12.169291 -17.920533 -5.345868 -21.373956 8.448663 2.783416 1.528343 1.351775 23.536986 -1.714294 -2.884563 -4.500335 1.157058 2.193738 3.648327 -8.503296 -7.194118 -2.152612 9.209201 -2.494830 -6.354098 -14.015650 -8.463758 0.487460 -67.947323 -1.444202 16.181513 9.595431 -9.926306 6.105954 7.746820 1.606600 8.080019 -15.814580 -11.934989 -12.249280 14.426855 12.658834 5.580014 65.224364 0.281776 11.208945 -9.656878 22.019654 5.412669 -10.183022 2.290521 1.237945 18.334648 11.030249 -8.487999 
0.043357 0.028532 -0.106611 176.955509 23.258963 1.028418 0.474995 2.534681 -26.638299 -1.197962 1.342896 11.271197 -0.761563 13.681171 4.935254 0.325219 4.911070 -15.573887 1.416383 0.163660 -26.877749 -0.011151 2.899150 17.143334 14.497859 -15.845353 -6.907583 -27.126416 10.690238 -0.233042 3.065977 1.092784 27.920396 -1.543853 -2.875058 -5.346858 2.037489 2.850538 4.342361 -10.595729 -8.826146 -4.441543 10.302773 -2.038832 -8.936517 -11.709601 -11.518932 0.703454 -66.854185 -4.125886 13.911175 12.681341 -24.062981 2.638866 9.942092 1.845281 3.532858 -17.465274 -13.006068 -12.208010 11.587419 15.887326 5.887983 63.371345 3.091022 8.309080 -11.800345 24.827499 0.987933 -12.111318 2.343332 0.086786 19.080688 11.692791 -8.840798 
